<svg width="25" height="24" viewBox="0 0 25 24" fill="none" xmlns="http://www.w3.org/2000/svg">
<path fill-rule="evenodd" clip-rule="evenodd" d="M4.25 3C4.25 2.58579 3.91421 2.25 3.5 2.25C3.08579 2.25 2.75 2.58579 2.75 3V14.0557V14.0558C2.74998 15.6583 2.74997 16.9373 2.88483 17.9404C3.02415 18.9767 3.31966 19.8301 3.9948 20.5052C4.66994 21.1803 5.52335 21.4758 6.55961 21.6152C7.5627 21.75 8.84166 21.75 10.4443 21.75H21.5C21.9142 21.75 22.25 21.4142 22.25 21C22.25 20.5858 21.9142 20.25 21.5 20.25H10.5C8.82888 20.25 7.65099 20.2484 6.75949 20.1285C6.59988 20.1071 6.45326 20.0823 6.31807 20.0539C6.51929 19.6522 6.72965 19.175 6.94599 18.6843C6.98886 18.5871 7.03196 18.4893 7.07528 18.3915C7.40505 17.6467 7.76144 16.8639 8.16464 16.147C8.57051 15.4254 9.00115 14.8126 9.4622 14.387C9.91672 13.9675 10.3562 13.7689 10.8063 13.7689C11.4095 13.7689 11.8056 14.1239 12.4387 14.7701L12.5008 14.8337C13.0593 15.4058 13.856 16.2217 15.1136 16.2217C16.1782 16.2217 16.9468 15.7563 17.5256 15.1225C18.034 14.5659 18.4202 13.8493 18.7569 13.2244L18.8281 13.0925C19.5995 11.6656 20.1938 10.75 21.5 10.75C21.9142 10.75 22.25 10.4142 22.25 10C22.25 9.58579 21.9142 9.25 21.5 9.25C19.2002 9.25 18.2221 11.0593 17.515 12.3673L17.5086 12.3792L17.4691 12.4521C17.1011 13.1332 16.797 13.696 16.418 14.111C16.0599 14.5031 15.6709 14.7217 15.1136 14.7217C14.5334 14.7217 14.1503 14.3739 13.5102 13.7204L13.463 13.6722C12.8969 13.0933 12.0908 12.2689 10.8063 12.2689C9.86461 12.2689 9.07884 12.6995 8.44481 13.2848C7.81732 13.8639 7.29615 14.6313 6.85726 15.4116C6.41569 16.1967 6.03435 17.0375 5.70371 17.7842L5.57097 18.0846L5.57096 18.0847C5.35138 18.5823 5.15981 19.0164 4.98374 19.3688C4.6755 19.0247 4.48021 18.5494 4.37145 17.7405C4.25159 16.849 4.25 15.6711 4.25 14V3ZM8.5 4.75C8.91421 4.75 9.25 4.41421 9.25 4C9.25 3.58579 8.91421 3.25 8.5 3.25H7.5C7.08579 3.25 6.75 3.58579 6.75 4C6.75 4.41421 7.08579 4.75 7.5 4.75H8.5ZM12.25 7C12.25 7.41421 11.9142 7.75 11.5 7.75H7.5C7.08579 7.75 6.75 7.41421 6.75 7C6.75 6.58579 7.08579 6.25 7.5 6.25H11.5C11.9142 6.25 12.25 6.58579 12.25 7Z" fill="#161616"/>
</svg>
