<svg width="24" height="24" viewBox="0 0 24 24" fill="none" xmlns="http://www.w3.org/2000/svg">
<path fill-rule="evenodd" clip-rule="evenodd" d="M4.23797 4.5C4.23797 3.53451 5.02206 2.75 5.99153 2.75C6.96101 2.75 7.7451 3.53451 7.7451 4.5C7.7451 5.46549 6.96101 6.25 5.99153 6.25C5.02206 6.25 4.23797 5.46549 4.23797 4.5ZM5.99153 1.25C4.19565 1.25 2.73797 2.70407 2.73797 4.5C2.73797 6.29593 4.19565 7.75 5.99153 7.75C7.78742 7.75 9.2451 6.29593 9.2451 4.5C9.2451 2.70407 7.78742 1.25 5.99153 1.25ZM2.54246 11.5179C3.58892 10.4219 4.81418 9.88725 5.99823 9.87521C7.17706 9.86323 8.3976 10.368 9.4485 11.5083C9.72922 11.8129 10.2037 11.8322 10.5083 11.5515C10.8129 11.2708 10.8322 10.7963 10.5515 10.4917C9.24564 9.07482 7.63203 8.35852 5.98298 8.37529C4.33914 8.392 2.74278 9.13595 1.45754 10.4821C1.17151 10.7817 1.18249 11.2564 1.48208 11.5425C1.78167 11.8285 2.25642 11.8175 2.54246 11.5179ZM16.238 15.5C16.238 14.5345 17.0221 13.75 17.9915 13.75C18.961 13.75 19.7451 14.5345 19.7451 15.5C19.7451 16.4655 18.961 17.25 17.9915 17.25C17.0221 17.25 16.238 16.4655 16.238 15.5ZM17.9915 12.25C16.1956 12.25 14.738 13.7041 14.738 15.5C14.738 17.2959 16.1956 18.75 17.9915 18.75C19.7874 18.75 21.2451 17.2959 21.2451 15.5C21.2451 13.7041 19.7874 12.25 17.9915 12.25ZM14.5425 22.5179C15.5889 21.4219 16.8142 20.8872 17.9982 20.8752C19.1771 20.8632 20.3976 21.368 21.4485 22.5083C21.7292 22.8129 22.2037 22.8322 22.5083 22.5515C22.8129 22.2708 22.8322 21.7963 22.5515 21.4917C21.2456 20.0748 19.632 19.3585 17.983 19.3753C16.3391 19.392 14.7428 20.1359 13.4575 21.4821C13.1715 21.7817 13.1825 22.2564 13.4821 22.5425C13.7817 22.8285 14.2564 22.8175 14.5425 22.5179ZM8.72121 20.1195C5.88029 19.5305 3.75 17.0174 3.75 14C3.75 13.5858 3.41421 13.25 3 13.25C2.58579 13.25 2.25 13.5858 2.25 14C2.25 18.2842 5.71579 21.75 10 21.75C10.2599 21.75 10.5013 21.6154 10.638 21.3943C10.7746 21.1732 10.7871 20.8971 10.6708 20.6646L9.67082 18.6646C9.48558 18.2941 9.03507 18.1439 8.66459 18.3292C8.29411 18.5144 8.14394 18.9649 8.32918 19.3354L8.72121 20.1195ZM15 2.25C14.5858 2.25 14.25 2.58579 14.25 3C14.25 3.41421 14.5858 3.75 15 3.75H21C21.4142 3.75 21.75 3.41421 21.75 3C21.75 2.58579 21.4142 2.25 21 2.25H15ZM15 5.25C14.5858 5.25 14.25 5.58579 14.25 6C14.25 6.41421 14.5858 6.75 15 6.75H21C21.4142 6.75 21.75 6.41421 21.75 6C21.75 5.58579 21.4142 5.25 21 5.25H15ZM15 8.25C14.5858 8.25 14.25 8.58579 14.25 9C14.25 9.41421 14.5858 9.75 15 9.75H18.5C18.9142 9.75 19.25 9.41421 19.25 9C19.25 8.58579 18.9142 8.25 18.5 8.25H15Z" fill="#161616"/>
</svg>
