<svg width="24" height="24" viewBox="0 0 24 24" fill="none" xmlns="http://www.w3.org/2000/svg">
<path fill-rule="evenodd" clip-rule="evenodd" d="M12 1.25C12.483 1.25 13.0263 1.33296 13.4714 1.62434C13.9652 1.94759 14.25 2.47083 14.25 3.125C14.25 3.58918 14.1088 4.06938 13.8789 4.48431C17.0314 5.28651 19.4122 8.06135 19.5906 11.4516C19.5997 11.6241 19.6064 11.7893 19.6129 11.9485C19.6351 12.49 19.6544 12.9615 19.7525 13.4133C19.8698 13.9531 20.0867 14.3775 20.5279 14.7084C21.2972 15.2854 21.75 16.191 21.75 17.1527C21.75 18.534 20.6628 19.75 19.2 19.75H15.675C15.3275 21.4617 13.8142 22.75 12 22.75C10.1858 22.75 8.67247 21.4617 8.32501 19.75H4.8C3.33719 19.75 2.25 18.534 2.25 17.1527C2.25 16.2597 2.64041 15.4151 3.31216 14.837L3.47213 14.7084C3.91329 14.3775 4.13025 13.9531 4.24749 13.4133C4.32599 13.0519 4.35403 12.6778 4.37345 12.2654L4.38705 11.9485C4.39356 11.7893 4.40032 11.6241 4.4094 11.4516C4.58784 8.06135 6.96857 5.28651 10.1211 4.48431C9.89125 4.06938 9.75 3.58918 9.75 3.125C9.75 2.47083 10.0348 1.94759 10.5286 1.62434C10.9737 1.33296 11.517 1.25 12 1.25ZM14.122 19.75H9.87803C10.1869 20.6239 11.0203 21.25 12 21.25C12.9797 21.25 13.8131 20.6239 14.122 19.75ZM12 5.75C8.75507 5.75 6.07788 8.28999 5.90733 11.5304C5.90061 11.6582 5.89525 11.7935 5.88968 11.9342C5.86752 12.4942 5.84199 13.1391 5.71332 13.7316C5.54263 14.5176 5.1782 15.3039 4.37213 15.9084C3.98049 16.2021 3.75 16.6631 3.75 17.1527C3.75 17.7677 4.22641 18.25 4.8 18.25H19.2C19.7736 18.25 20.25 17.7677 20.25 17.1527C20.25 16.6631 20.0195 16.2021 19.6279 15.9084C18.8218 15.3039 18.4574 14.5176 18.2867 13.7316C18.1837 13.2576 18.1468 12.7501 18.1248 12.2793L18.1103 11.9341C18.1047 11.7933 18.0994 11.6581 18.0927 11.5304C17.9221 8.28999 15.2449 5.75 12 5.75ZM12 2.75C11.6546 2.75 11.4479 2.81533 11.3501 2.87934C11.3098 2.90574 11.2923 2.92864 11.2816 2.94888C11.2704 2.97026 11.25 3.02106 11.25 3.125C11.25 3.35726 11.3528 3.67217 11.5413 3.92575C11.7353 4.18683 11.9131 4.25 12 4.25C12.0869 4.25 12.2647 4.18683 12.4587 3.92575C12.6472 3.67217 12.75 3.35726 12.75 3.125C12.75 3.02106 12.7296 2.97026 12.7184 2.94888C12.7077 2.92864 12.6902 2.90574 12.6499 2.87934C12.5521 2.81533 12.3454 2.75 12 2.75Z" fill="#161616"/>
</svg>
