<svg width="25" height="24" viewBox="0 0 25 24" fill="none" xmlns="http://www.w3.org/2000/svg">
<path fill-rule="evenodd" clip-rule="evenodd" d="M13.5 7.28336C13.5 5.08696 15.3714 3.25 17.75 3.25C20.1727 3.25 22 5.08226 22 7.28336C22 9.47974 20.1276 11.3167 17.7491 11.3167C17.4712 11.317 17.1942 11.2914 16.9212 11.2401L16.9049 11.237L16.9049 11.237C16.7922 11.2159 16.6885 11.1964 16.6043 11.1851C16.5069 11.172 16.3853 11.162 16.2453 11.1834C16.0903 11.207 15.9586 11.2665 15.8812 11.3033C15.7986 11.3425 15.7003 11.3948 15.5977 11.4494L15.5976 11.4494L15.5975 11.4495L15.5853 11.456C15.4141 11.547 15.2333 11.6176 15.0471 11.6667C15.0698 11.583 15.0893 11.4983 15.1056 11.4127L15.1058 11.4115C15.2153 10.8313 14.96 10.3565 14.6438 10.0354C13.9302 9.31077 13.5 8.34327 13.5 7.28336ZM17.75 1.75C14.6062 1.75 12 4.1966 12 7.28336C12 8.76181 12.603 10.1008 13.575 11.0878C13.605 11.1183 13.6205 11.1402 13.628 11.1526C13.5665 11.4579 13.4334 11.7398 13.2435 11.9734C13.0766 12.1787 13.0303 12.4568 13.1215 12.7052C13.2128 12.9536 13.4282 13.1355 13.6883 13.1839C14.579 13.3495 15.5004 13.2 16.2896 12.7804C16.373 12.736 16.431 12.7052 16.4747 12.683L16.4879 12.6853C16.5293 12.6927 16.5791 12.7021 16.6442 12.7143C17.0087 12.7828 17.3788 12.8171 17.75 12.8167C20.8936 12.8167 23.5 10.3701 23.5 7.28336C23.5 4.2013 20.9477 1.75 17.75 1.75ZM16.4747 12.683C16.4406 12.677 16.419 12.6736 16.4046 12.6717C16.3969 12.6707 16.3935 12.6704 16.3935 12.6704C16.3935 12.6704 16.426 12.6731 16.4711 12.6662C16.5145 12.6596 16.5422 12.6497 16.5471 12.648L16.5487 12.6474C16.5487 12.6474 16.5408 12.6506 16.5247 12.6583C16.5101 12.6652 16.4938 12.6733 16.4747 12.683ZM13.628 11.1526L13.6318 11.1333C13.6314 11.1354 13.6306 11.1417 13.6315 11.1504C13.6319 11.1543 13.6325 11.1577 13.6331 11.1604L13.6337 11.1627L13.6342 11.1643C13.6342 11.1643 13.6325 11.1601 13.628 11.1526ZM16.2422 6.75C15.828 6.75 15.4922 7.08579 15.4922 7.5C15.4922 7.91421 15.828 8.25 16.2422 8.25H16.2503C16.6645 8.25 17.0003 7.91421 17.0003 7.5C17.0003 7.08579 16.6645 6.75 16.2503 6.75H16.2422ZM19.2422 6.75C18.828 6.75 18.4922 7.08579 18.4922 7.5C18.4922 7.91421 18.828 8.25 19.2422 8.25H19.2503C19.6645 8.25 20.0003 7.91421 20.0003 7.5C20.0003 7.08579 19.6645 6.75 19.2503 6.75H19.2422ZM5.07139 16.9415C6.14252 16.5013 7.30702 16.25 8.2568 16.25C9.2067 16.25 10.3701 16.5012 11.4402 16.9416C12.5033 17.3791 13.5685 18.0421 14.2406 18.9349C14.5539 19.351 14.619 19.9471 14.2952 20.4331C13.9929 20.8869 13.3925 21.5358 12.2815 22.0131C11.8631 22.1929 11.43 22.2471 11.0406 22.2471H5.46835C5.07889 22.2471 4.64583 22.1929 4.22739 22.0131C3.11898 21.5369 2.53354 20.9132 2.2137 20.4331C1.88992 19.9471 1.955 19.351 2.26827 18.9349C2.94063 18.0419 4.00732 17.3789 5.07139 16.9415ZM3.55332 19.7279C3.75197 19.9825 4.11985 20.3343 4.81951 20.6349C4.99495 20.7103 5.21122 20.7471 5.46835 20.7471H11.0406C11.2977 20.7471 11.5139 20.7103 11.6894 20.6349C12.3809 20.3378 12.76 19.9737 12.9551 19.7273C12.4957 19.1773 11.7437 18.6886 10.8693 18.3287C9.94408 17.948 8.97514 17.75 8.25686 17.75C7.53844 17.75 6.5682 17.9481 5.64165 18.3289C4.76564 18.689 4.01261 19.1779 3.55332 19.7279ZM6.22852 11.7883C6.22852 10.6727 7.13526 9.76562 8.25725 9.76562C9.37924 9.76562 10.286 10.6727 10.286 11.7883C10.286 12.9038 9.37924 13.811 8.25725 13.811C7.13526 13.811 6.22852 12.9038 6.22852 11.7883ZM8.25725 8.26562C6.30993 8.26562 4.72852 9.84123 4.72852 11.7883C4.72852 13.7353 6.30993 15.311 8.25725 15.311C10.2046 15.311 11.786 13.7353 11.786 11.7883C11.786 9.84123 10.2046 8.26562 8.25725 8.26562Z" fill="#161616"/>
</svg>
