<svg width="24" height="24" viewBox="0 0 24 24" fill="none" xmlns="http://www.w3.org/2000/svg">
<path fill-rule="evenodd" clip-rule="evenodd" d="M9.3534 3.2504C9.67974 2.09594 10.7411 1.25 12 1.25C13.2589 1.25 14.3203 2.09594 14.6466 3.2504C15.5027 3.25214 16.2098 3.2615 16.8005 3.31174C17.5431 3.3749 18.1701 3.50674 18.7391 3.81087C19.5677 4.25373 20.2463 4.93233 20.6891 5.76087C20.9933 6.32985 21.1251 6.95693 21.1883 7.69952C21.25 8.42547 21.25 9.32737 21.25 10.4655V10.4655V14.0564V14.0565C21.25 15.8942 21.25 17.3498 21.0969 18.489C20.9392 19.6614 20.6071 20.6104 19.8588 21.3588C19.1104 22.1071 18.1614 22.4392 16.989 22.5969C15.8498 22.75 14.3942 22.75 12.5565 22.75H12.5564H11.4436H11.4435C9.6058 22.75 8.15018 22.75 7.01098 22.5969C5.83856 22.4392 4.88961 22.1071 4.14124 21.3588C3.39288 20.6104 3.06076 19.6614 2.90314 18.489C2.74997 17.3498 2.74998 15.8942 2.75 14.0564V14.0564V10.4656V10.4656C2.74999 9.32742 2.74999 8.42549 2.81174 7.69952C2.8749 6.95693 3.00674 6.32985 3.31087 5.76087C3.75373 4.93233 4.43234 4.25373 5.26087 3.81087C5.82985 3.50674 6.45693 3.3749 7.19952 3.31174C7.79018 3.2615 8.49732 3.25214 9.3534 3.2504ZM12 2.75C11.3096 2.75 10.75 3.30964 10.75 4C10.75 4.41421 10.4142 4.75 10 4.75C8.81978 4.75 7.9816 4.75063 7.32665 4.80634C6.68101 4.86126 6.28261 4.96557 5.96796 5.13376C5.40107 5.43676 4.93677 5.90107 4.63376 6.46796C4.46557 6.78261 4.36126 7.18101 4.30634 7.82665C4.25063 8.4816 4.25 9.31977 4.25 10.5V14C4.25 15.9068 4.25159 17.2615 4.38976 18.2892C4.52502 19.2952 4.77869 19.8749 5.2019 20.2981C5.62511 20.7213 6.20476 20.975 7.21085 21.1102C8.23851 21.2484 9.59318 21.25 11.5 21.25H12.5C14.4068 21.25 15.7615 21.2484 16.7892 21.1102C17.7952 20.975 18.3749 20.7213 18.7981 20.2981C19.2213 19.8749 19.475 19.2952 19.6102 18.2892C19.7484 17.2615 19.75 15.9068 19.75 14V10.5C19.75 9.31977 19.7494 8.4816 19.6937 7.82665C19.6387 7.18101 19.5344 6.78261 19.3662 6.46796C19.0632 5.90107 18.5989 5.43676 18.032 5.13376C17.7174 4.96557 17.319 4.86126 16.6734 4.80634C16.0184 4.75063 15.1802 4.75 14 4.75C13.5858 4.75 13.25 4.41421 13.25 4C13.25 3.30964 12.6904 2.75 12 2.75ZM5.75 10C5.75 9.58579 6.08579 9.25 6.5 9.25H10.5C10.9142 9.25 11.25 9.58579 11.25 10C11.25 10.4142 10.9142 10.75 10.5 10.75H6.5C6.08579 10.75 5.75 10.4142 5.75 10ZM17.7504 9.70717C18.1408 9.56889 18.3453 9.14027 18.207 8.74982C18.0687 8.35937 17.6401 8.15495 17.2496 8.29323C16.7675 8.46399 16.3199 8.78384 15.9411 9.11601C15.5546 9.455 15.1963 9.84574 14.8947 10.2073C14.7485 10.3825 14.6135 10.5534 14.4928 10.7119C14.4046 10.6294 14.3162 10.5596 14.2285 10.5012C14.0696 10.3952 13.9205 10.3314 13.792 10.2947C13.7282 10.2765 13.671 10.2653 13.6216 10.2587C13.5969 10.2555 13.5744 10.2533 13.554 10.252C13.5439 10.2513 13.5343 10.2509 13.5252 10.2506L13.5122 10.2503L13.506 10.2502L13.503 10.2502L13.5015 10.2502H13.5011L13.5 10.2502C13.0858 10.2502 12.75 10.586 12.75 11.0002C12.75 11.3749 13.0248 11.6855 13.3839 11.7413C13.3875 11.7434 13.3917 11.746 13.3965 11.7492C13.4522 11.7864 13.6237 11.9246 13.8292 12.3356C13.9501 12.5774 14.1917 12.7354 14.4616 12.7492C14.7315 12.763 14.9882 12.6302 15.1332 12.4021L15.1356 12.3983L15.1471 12.3807C15.1576 12.3645 15.1738 12.3398 15.1952 12.3076C15.2381 12.2432 15.3018 12.1492 15.3829 12.0343C15.5458 11.8036 15.776 11.4924 16.0465 11.1681C16.3184 10.8422 16.6219 10.5142 16.9302 10.2438C17.2463 9.96657 17.5266 9.78642 17.7504 9.70717ZM5.75 16C5.75 15.5858 6.08579 15.25 6.5 15.25H10.5C10.9142 15.25 11.25 15.5858 11.25 16C11.25 16.4142 10.9142 16.75 10.5 16.75H6.5C6.08579 16.75 5.75 16.4142 5.75 16ZM17.7504 15.7072C18.1408 15.5689 18.3453 15.1403 18.207 14.7498C18.0687 14.3594 17.6401 14.155 17.2496 14.2932C16.7675 14.464 16.3199 14.7838 15.9411 15.116C15.5546 15.455 15.1963 15.8457 14.8947 16.2073C14.7485 16.3825 14.6135 16.5534 14.4928 16.7119C14.4046 16.6294 14.3162 16.5596 14.2285 16.5012C14.0696 16.3952 13.9205 16.3314 13.792 16.2947C13.7282 16.2765 13.671 16.2653 13.6216 16.2587C13.5969 16.2555 13.5744 16.2533 13.554 16.252C13.5439 16.2513 13.5343 16.2509 13.5252 16.2506L13.5122 16.2503L13.506 16.2502L13.503 16.2502L13.5015 16.2502L13.5252 16.2506L13.5 16.2502C13.0858 16.2502 12.75 16.586 12.75 17.0002C12.75 17.3749 13.0248 17.6855 13.3839 17.7413C13.3853 17.7421 13.3868 17.743 13.3885 17.7441C13.3909 17.7456 13.3936 17.7473 13.3965 17.7492C13.4522 17.7864 13.6237 17.9246 13.8292 18.3356C13.9501 18.5774 14.1917 18.7354 14.4616 18.7492C14.7315 18.763 14.9882 18.6302 15.1332 18.4021L15.1356 18.3983L15.1471 18.3807C15.1576 18.3645 15.1738 18.3398 15.1952 18.3076C15.2381 18.2432 15.3018 18.1492 15.3829 18.0343C15.5458 17.8036 15.776 17.4924 16.0465 17.1681C16.3184 16.8422 16.6219 16.5142 16.9302 16.2438C17.2463 15.9666 17.5266 15.7864 17.7504 15.7072Z" fill="#161616"/>
</svg>
