<svg width="24" height="25" viewBox="0 0 24 25" fill="none" xmlns="http://www.w3.org/2000/svg">
<path fill-rule="evenodd" clip-rule="evenodd" d="M15.723 1.95948C16.2314 2.17009 16.622 2.56142 17.1155 3.05588L19.9433 5.88365C20.4377 6.37716 20.8291 6.76775 21.0397 7.2762C21.2503 7.78465 21.2498 8.33755 21.2491 9.03615L21.249 13.555C21.249 14.9226 21.2491 16.0249 21.1325 16.8919C21.0115 17.792 20.7526 18.5499 20.1507 19.1518C19.6199 19.6825 18.9679 19.9466 18.2041 20.0846C17.9234 21.878 16.3716 23.25 14.4994 23.25L9.44416 23.25C8.07656 23.25 6.97424 23.2501 6.10727 23.1335C5.20717 23.0125 4.44929 22.7536 3.84737 22.1517C3.24546 21.5498 2.98656 20.7919 2.86555 19.8918C2.74899 19.0248 2.749 17.9225 2.74902 16.5549V16.5549V16.5549V16.5L2.74902 8.5C2.74902 6.62775 4.12109 5.07595 5.91457 4.79528C6.05254 4.03135 6.31659 3.37929 6.84738 2.8485C7.44929 2.24658 8.20717 1.98769 9.10728 1.86667C9.97424 1.75011 11.0766 1.75013 12.4442 1.75015L13.963 1.75007C14.6616 1.7494 15.2145 1.74888 15.723 1.95948ZM14.554 20.2502C15.3289 20.2502 16.0187 20.2502 16.6287 20.229C16.3258 21.1138 15.4869 21.75 14.4994 21.75L9.49902 21.75C8.06361 21.75 7.0625 21.7484 6.30715 21.6469C5.57337 21.5482 5.1848 21.3678 4.90804 21.091C4.63127 20.8143 4.45083 20.4257 4.35217 19.6919C4.25062 18.9366 4.24903 17.9354 4.24903 16.5L4.24903 8.5C4.24903 7.51244 4.88526 6.67349 5.7702 6.37067C5.749 6.98065 5.74901 7.67036 5.74902 8.44522V8.44525L5.74902 13.555C5.749 14.9226 5.74899 16.0249 5.86555 16.8919C5.98657 17.792 6.24546 18.5499 6.84738 19.1518C7.44929 19.7537 8.20717 20.0126 9.10728 20.1336C9.97424 20.2502 11.0766 20.2502 12.4442 20.2502H14.5539H14.554ZM14.249 3.25153C14.1312 3.25041 13.9967 3.25 13.8422 3.25H12.499C11.0636 3.25 10.0625 3.25159 9.30715 3.35315C8.57337 3.4518 8.1848 3.63225 7.90803 3.90901C7.63127 4.18577 7.45083 4.57434 7.35217 5.30812C7.25062 6.06347 7.24902 7.06458 7.24902 8.5L7.24902 13.5C7.24902 14.9354 7.25062 15.9365 7.35217 16.6919C7.45083 17.4257 7.63127 17.8142 7.90803 18.091C8.1848 18.3678 8.57337 18.5482 9.30715 18.6469C10.0625 18.7484 11.0636 18.75 12.499 18.75H14.499C15.9344 18.75 16.9356 18.7484 17.6909 18.6469C18.4247 18.5482 18.8133 18.3678 19.09 18.091C19.3668 17.8142 19.5472 17.4257 19.6459 16.6919C19.7474 15.9365 19.749 14.9354 19.749 13.5V9.15685C19.749 9.0023 19.7486 8.86779 19.7475 8.75L18.947 8.75C18.0486 8.75003 17.2993 8.75005 16.7045 8.67009C16.0768 8.58568 15.51 8.40001 15.0545 7.94454C14.599 7.48907 14.4133 6.92227 14.3289 6.29448C14.249 5.6997 14.249 4.95048 14.249 4.052L14.249 4V3.25153ZM15.749 3.81547V4C15.749 4.96401 15.7506 5.61157 15.8156 6.09461C15.8776 6.55607 15.9848 6.75357 16.1151 6.88388C16.2455 7.0142 16.443 7.12142 16.9044 7.18346C17.3875 7.24841 18.035 7.25 18.999 7.25L19.1836 7.25C19.0801 7.14297 18.9534 7.01507 18.7971 6.85876L16.1403 4.2019C15.984 4.04559 15.8561 3.91888 15.749 3.81547ZM9.99902 10.75C9.58481 10.75 9.24902 11.0858 9.24902 11.5C9.24902 11.9142 9.58481 12.25 9.99902 12.25L13.999 12.25C14.4132 12.25 14.749 11.9142 14.749 11.5C14.749 11.0858 14.4132 10.75 13.999 10.75L9.99902 10.75ZM9.99902 14.75C9.58481 14.75 9.24902 15.0858 9.24902 15.5C9.24902 15.9142 9.58481 16.25 9.99902 16.25L16.999 16.25C17.4132 16.25 17.749 15.9142 17.749 15.5C17.749 15.0858 17.4132 14.75 16.999 14.75L9.99902 14.75Z" fill="#161616"/>
</svg>
