<svg width="24" height="24" viewBox="0 0 24 24" fill="none" xmlns="http://www.w3.org/2000/svg">
<path fill-rule="evenodd" clip-rule="evenodd" d="M9.95063 1.25L10 1.25L14.0494 1.25H14.0494C14.7143 1.24996 15.2871 1.24993 15.7458 1.31161C16.2375 1.37771 16.7087 1.52677 17.091 1.90901C17.4732 2.29126 17.6223 2.76252 17.6884 3.25416C17.7501 3.71288 17.75 4.28571 17.75 4.95053V4.95063V6.04937V6.04947C17.75 6.7143 17.7501 7.28712 17.6884 7.74585C17.6223 8.23748 17.4732 8.70875 17.091 9.09099C16.7087 9.47324 16.2375 9.6223 15.7458 9.6884C15.2871 9.75007 14.7142 9.75004 14.0494 9.75001L13.2271 9.75L10.416 11.624C10.1859 11.7775 9.88998 11.7918 9.64611 11.6613C9.40224 11.5307 9.25 11.2766 9.25 11V9.7469C8.87656 9.74158 8.54277 9.7272 8.25416 9.6884C7.76252 9.6223 7.29126 9.47324 6.90901 9.09099C6.52677 8.70875 6.37771 8.23748 6.31161 7.74585C6.24993 7.28711 6.24996 6.71425 6.25 6.04939V6.04938L6.25 6V5L6.25 4.95063V4.95062C6.24996 4.28576 6.24993 3.7129 6.31161 3.25416C6.37771 2.76252 6.52677 2.29126 6.90901 1.90901C7.29126 1.52677 7.76252 1.37771 8.25416 1.31161C8.71289 1.24993 9.28574 1.24996 9.95058 1.25H9.95063ZM8.45403 2.79823C8.12873 2.84197 8.02677 2.91258 7.96967 2.96967C7.91258 3.02677 7.84197 3.12873 7.79823 3.45403C7.7516 3.80091 7.75 4.27169 7.75 5V6C7.75 6.72831 7.7516 7.1991 7.79823 7.54598C7.84197 7.87128 7.91258 7.97324 7.96967 8.03033C8.02677 8.08743 8.12873 8.15804 8.45403 8.20177C8.80091 8.24841 9.27169 8.25 10 8.25C10.4142 8.25 10.75 8.58579 10.75 9V9.59862L12.584 8.37597C12.7072 8.29383 12.8519 8.25 13 8.25H14C14.7283 8.25 15.1991 8.24841 15.546 8.20177C15.8713 8.15804 15.9732 8.08743 16.0303 8.03033C16.0874 7.97324 16.158 7.87128 16.2018 7.54598C16.2484 7.1991 16.25 6.72831 16.25 6V5C16.25 4.27169 16.2484 3.80091 16.2018 3.45403C16.158 3.12873 16.0874 3.02677 16.0303 2.96967C15.9732 2.91258 15.8713 2.84197 15.546 2.79823C15.1991 2.7516 14.7283 2.75 14 2.75H10C9.27169 2.75 8.80091 2.7516 8.45403 2.79823ZM7.99266 19.3639C6.77072 18.5454 5.22948 18.5454 4.00754 19.3639C3.91627 19.425 3.82292 19.4848 3.72984 19.5443L3.72976 19.5444L3.72973 19.5444C3.42056 19.7422 3.11427 19.9382 2.89636 20.1781C2.76645 20.3212 2.75132 20.3965 2.75023 20.4077C2.75023 20.4077 2.74902 20.4144 2.75596 20.4321C2.76478 20.4547 2.79106 20.5072 2.86522 20.5866C3.29912 21.0517 3.66011 21.25 4.04048 21.25H7.95971C8.34008 21.25 8.70108 21.0517 9.13498 20.5866C9.20914 20.5072 9.23542 20.4547 9.24423 20.4321C9.2516 20.4133 9.24996 20.4077 9.24996 20.4077C9.24888 20.3965 9.23375 20.3212 9.10384 20.1781C8.88592 19.9382 8.57961 19.7422 8.27044 19.5444C8.17733 19.4848 8.08396 19.4251 7.99266 19.3639ZM3.17272 18.1177C4.89978 16.9608 7.10042 16.9608 8.82747 18.1177C8.86738 18.1444 8.92096 18.1783 8.9846 18.2185L8.98477 18.2186C9.29483 18.4146 9.84353 18.7614 10.2143 19.1697C10.4496 19.4288 10.6977 19.7967 10.7429 20.2626C10.7915 20.7627 10.5935 21.2221 10.2317 21.6099C9.68462 22.1963 8.95301 22.75 7.95971 22.75H4.04048C3.04719 22.75 2.31558 22.1963 1.76846 21.6099C1.40665 21.2221 1.20867 20.7627 1.25726 20.2626C1.30253 19.7967 1.55059 19.4288 1.78592 19.1697C2.15667 18.7614 2.70537 18.4146 3.01543 18.2186C3.07914 18.1783 3.13278 18.1444 3.17272 18.1177ZM16.0075 19.3639C17.2295 18.5454 18.7707 18.5454 19.9927 19.3639C20.0839 19.4251 20.1773 19.4848 20.2704 19.5443L20.2704 19.5444C20.5796 19.7422 20.8859 19.9382 21.1038 20.1781C21.2337 20.3212 21.2489 20.3965 21.25 20.4077C21.25 20.4077 21.2516 20.4133 21.2442 20.4321C21.2354 20.4547 21.2091 20.5072 21.135 20.5866C20.7011 21.0517 20.3401 21.25 19.9597 21.25H16.0405C15.6601 21.25 15.2991 21.0517 14.8652 20.5866C14.7911 20.5072 14.7648 20.4547 14.756 20.4321C14.749 20.4144 14.7502 20.4077 14.7502 20.4077C14.7513 20.3965 14.7665 20.3212 14.8964 20.1781C15.1143 19.9382 15.4206 19.7422 15.7297 19.5444L15.7298 19.5444L15.7299 19.5443L15.7299 19.5443C15.823 19.4847 15.9163 19.425 16.0075 19.3639ZM20.8275 18.1177C19.1004 16.9608 16.8998 16.9608 15.1727 18.1177C15.1328 18.1444 15.0793 18.1783 15.0156 18.2185L15.0155 18.2186L15.0154 18.2186C14.7054 18.4146 14.1567 18.7614 13.7859 19.1697C13.5506 19.4288 13.3025 19.7967 13.2573 20.2626C13.2087 20.7627 13.4067 21.2221 13.7685 21.6099C14.3156 22.1963 15.0472 22.75 16.0405 22.75H19.9597C20.953 22.75 21.6846 22.1963 22.2317 21.6099C22.5935 21.2221 22.7915 20.7627 22.7429 20.2626C22.6977 19.7967 22.4496 19.4288 22.2143 19.1697C21.8435 18.7614 21.2948 18.4146 20.9848 18.2186L20.9846 18.2185L20.9842 18.2183C20.9207 18.1781 20.8673 18.1444 20.8275 18.1177ZM6 12.25C5.30964 12.25 4.75 12.8096 4.75 13.5C4.75 14.1904 5.30964 14.75 6 14.75C6.69036 14.75 7.25 14.1904 7.25 13.5C7.25 12.8096 6.69036 12.25 6 12.25ZM3.25 13.5C3.25 11.9812 4.48122 10.75 6 10.75C7.51878 10.75 8.75 11.9812 8.75 13.5C8.75 15.0188 7.51878 16.25 6 16.25C4.48122 16.25 3.25 15.0188 3.25 13.5ZM16.75 13.5C16.75 12.8096 17.3096 12.25 18 12.25C18.6904 12.25 19.25 12.8096 19.25 13.5C19.25 14.1904 18.6904 14.75 18 14.75C17.3096 14.75 16.75 14.1904 16.75 13.5ZM18 10.75C16.4812 10.75 15.25 11.9812 15.25 13.5C15.25 15.0188 16.4812 16.25 18 16.25C19.5188 16.25 20.75 15.0188 20.75 13.5C20.75 11.9812 19.5188 10.75 18 10.75Z" fill="#161616"/>
</svg>
