<svg width="25" height="24" viewBox="0 0 25 24" fill="none" xmlns="http://www.w3.org/2000/svg">
<path fill-rule="evenodd" clip-rule="evenodd" d="M5.25 9.91886C5.25 5.9668 8.48871 2.75 12.5 2.75C16.5113 2.75 19.75 5.9668 19.75 9.91886C19.75 11.27 19.3727 12.532 18.7165 13.61C18.5011 13.9638 18.6134 14.4253 18.9672 14.6406C19.321 14.856 19.7824 14.7438 19.9978 14.39C20.7926 13.0843 21.25 11.5535 21.25 9.91886C21.25 5.12399 17.3253 1.25 12.5 1.25C7.67474 1.25 3.75 5.12399 3.75 9.91886C3.75 11.5535 4.2074 13.0843 5.00222 14.39C5.2176 14.7438 5.67902 14.856 6.03283 14.6406C6.38665 14.4253 6.49887 13.9638 6.2835 13.61C5.6273 12.532 5.25 11.27 5.25 9.91886ZM8.67156 15.25L8.65428 15.25H8.65427H8.65426H8.65425C8.52402 15.25 8.39562 15.25 8.28741 15.2564C8.17317 15.2631 8.01965 15.2793 7.85973 15.3415C7.36202 15.5351 7.02666 16.0038 7.00126 16.5355C6.9931 16.7063 7.0261 16.8567 7.05577 16.9673C7.08387 17.0721 7.12442 17.1942 7.16565 17.3183L7.16566 17.3183L7.17109 17.3346L7.197 17.4128C7.34109 17.8475 7.45351 18.1867 7.63467 18.473C7.92613 18.9337 8.34574 19.2942 8.83715 19.5131L8.89299 19.7923L8.91477 19.9015C9.03418 20.5011 9.12727 20.9685 9.34658 21.3552C9.68341 21.9492 10.2292 22.3966 10.8777 22.6104C11.2999 22.7496 11.7764 22.7492 12.3878 22.7487L12.4991 22.7486L12.6104 22.7487C13.2218 22.7492 13.6983 22.7496 14.1206 22.6104C14.769 22.3966 15.3148 21.9492 15.6516 21.3552C15.8709 20.9684 15.964 20.5011 16.0834 19.9015L16.1052 19.7923L16.1609 19.514C16.6531 19.2952 17.0735 18.9343 17.3653 18.473C17.5465 18.1867 17.6589 17.8475 17.803 17.4128L17.8289 17.3346L17.8343 17.3183C17.8755 17.1942 17.9161 17.0721 17.9442 16.9673C17.9739 16.8567 18.0069 16.7063 17.9987 16.5355C17.9733 16.0038 17.6379 15.5351 17.1402 15.3415C16.9803 15.2793 16.8268 15.2631 16.7126 15.2564C16.6044 15.25 16.476 15.25 16.3457 15.25H16.3457H16.3457H16.3457H13.25V11C13.25 10.5858 12.9142 10.25 12.5 10.25C12.0858 10.25 11.75 10.5858 11.75 11V15.25H8.67156ZM10.6514 20.6153C10.5771 20.4843 10.5289 20.3087 10.4147 19.75L10.4295 19.75H10.4295L10.5118 19.75H14.4881L14.5705 19.75H14.5705L14.5835 19.75C14.4693 20.3087 14.4211 20.4843 14.3468 20.6153C14.1937 20.8852 13.9457 21.0886 13.6509 21.1858C13.4883 21.2394 13.2758 21.2486 12.4991 21.2486C11.7224 21.2486 11.5099 21.2394 11.3473 21.1858C11.0526 21.0886 10.8045 20.8852 10.6514 20.6153ZM8.59463 16.8618L8.55768 16.7501L8.67156 16.75H16.3284L16.4423 16.7501L16.4053 16.8618C16.2227 17.4117 16.1677 17.5604 16.0977 17.6711C15.9262 17.9422 15.6578 18.1359 15.3488 18.2131C15.2229 18.2446 15.0659 18.25 14.4881 18.25H10.5118C9.93402 18.25 9.77707 18.2446 9.65121 18.2131C9.34216 18.1359 9.0738 17.9422 8.9023 17.6711C8.83228 17.5604 8.77725 17.4117 8.59463 16.8618Z" fill="#161616"/>
</svg>
