<svg width="24" height="24" viewBox="0 0 24 24" fill="none" xmlns="http://www.w3.org/2000/svg">
<path fill-rule="evenodd" clip-rule="evenodd" d="M5.75 7C5.75 5.20507 7.20507 3.75 9 3.75C10.7949 3.75 12.25 5.20507 12.25 7C12.25 8.79493 10.7949 10.25 9 10.25C7.20507 10.25 5.75 8.79493 5.75 7ZM9 2.25C6.37665 2.25 4.25 4.37665 4.25 7C4.25 9.62335 6.37665 11.75 9 11.75C11.6234 11.75 13.75 9.62335 13.75 7C13.75 4.37665 11.6234 2.25 9 2.25ZM15 2.25C14.5858 2.25 14.25 2.58579 14.25 3C14.25 3.41421 14.5858 3.75 15 3.75C16.7949 3.75 18.25 5.20507 18.25 7C18.25 8.79493 16.7949 10.25 15 10.25C14.5858 10.25 14.25 10.5858 14.25 11C14.25 11.4142 14.5858 11.75 15 11.75C17.6234 11.75 19.75 9.62335 19.75 7C19.75 4.37665 17.6234 2.25 15 2.25ZM1.25 19C1.25 15.8244 3.82436 13.25 7 13.25H11C14.1756 13.25 16.75 15.8244 16.75 19C16.75 20.5188 15.5188 21.75 14 21.75H4C2.48122 21.75 1.25 20.5188 1.25 19ZM7 14.75C4.65279 14.75 2.75 16.6528 2.75 19C2.75 19.6904 3.30964 20.25 4 20.25H14C14.6904 20.25 15.25 19.6904 15.25 19C15.25 16.6528 13.3472 14.75 11 14.75H7ZM17 13.25C16.5858 13.25 16.25 13.5858 16.25 14C16.25 14.4142 16.5858 14.75 17 14.75C19.3472 14.75 21.25 16.6528 21.25 19C21.25 19.6904 20.6904 20.25 20 20.25H18.5C18.0858 20.25 17.75 20.5858 17.75 21C17.75 21.4142 18.0858 21.75 18.5 21.75H20C21.5188 21.75 22.75 20.5188 22.75 19C22.75 15.8244 20.1756 13.25 17 13.25Z" fill="#161616"/>
</svg>
