<svg width="25" height="24" viewBox="0 0 25 24" fill="none" xmlns="http://www.w3.org/2000/svg">
<path fill-rule="evenodd" clip-rule="evenodd" d="M12.5 1.24878C16.77 1.24878 20.25 4.72878 20.25 8.99878C20.25 11.4788 19.07 13.6888 17.25 15.1088V20.5088C17.25 21.5388 17.25 22.2888 16.56 22.6288C16.39 22.7088 16.23 22.7488 16.07 22.7488C15.57 22.7488 15.08 22.3888 14.46 21.9188L13.25 21.0088C13.2199 20.9865 13.1895 20.9639 13.1591 20.9412C12.8763 20.7307 12.5903 20.5178 12.5 20.5088C12.4097 20.5178 12.1237 20.7307 11.8409 20.9412C11.8105 20.9639 11.7801 20.9865 11.75 21.0088L10.55 21.9088L10.5238 21.9283C9.70753 22.5382 9.12271 22.9751 8.44 22.6288C7.75 22.2888 7.75 21.5388 7.75 20.5088V15.1088C5.93 13.6888 4.75 11.4788 4.75 8.99878C4.75 4.72878 8.23 1.24878 12.5 1.24878ZM12.5 2.74878C9.05 2.74878 6.25 5.54878 6.25 8.99878C6.25 12.4488 9.05 15.2488 12.5 15.2488C15.95 15.2488 18.75 12.4488 18.75 8.99878C18.75 5.54878 15.95 2.74878 12.5 2.74878ZM15.75 20.5188V20.5088V16.0287C14.76 16.4887 13.66 16.7488 12.5 16.7488C11.34 16.7488 10.24 16.4887 9.25 16.0287V20.5188V21.0188C9.29671 20.9838 9.34645 20.9472 9.39745 20.9097C9.47747 20.8509 9.5606 20.7898 9.64 20.7288L10.85 19.8188C11.49 19.3388 11.92 19.0188 12.5 19.0188C13.08 19.0188 13.51 19.3388 14.15 19.8188L15.35 20.7188C15.49 20.8188 15.63 20.9188 15.75 21.0088V20.5188ZM9.45962 11.4288L9.70962 9.74878H9.74962L8.59962 8.54877C8.29962 8.23877 8.19962 7.79879 8.33962 7.38879C8.46962 6.98879 8.80963 6.69878 9.21963 6.62878L10.7896 6.36877L11.5196 4.86877C11.7096 4.47877 12.0996 4.23877 12.5196 4.23877C12.9396 4.23877 13.3296 4.47877 13.5196 4.86877L14.2496 6.36877L15.8196 6.62878C16.2296 6.69878 16.5696 6.98879 16.6996 7.38879C16.8296 7.79879 16.7296 8.23877 16.4396 8.54877L15.2896 9.74878L15.5396 11.4288C15.5996 11.8688 15.4196 12.2888 15.0696 12.5388C14.7296 12.7788 14.2796 12.8088 13.9096 12.6088L12.4996 11.8588L11.0896 12.6088C10.9296 12.6988 10.7496 12.7388 10.5696 12.7388C10.3496 12.7388 10.1196 12.6788 9.92962 12.5388C9.56962 12.2888 9.39962 11.8588 9.45962 11.4288ZM12.0296 7.19879C11.8696 7.52879 11.5596 7.75879 11.2096 7.81879L10.1196 7.99878L10.9196 8.83875C11.1596 9.08875 11.2696 9.44877 11.2196 9.79877L11.0496 10.9288L11.9796 10.4388C12.1396 10.3488 12.3196 10.3088 12.4996 10.3088C12.6796 10.3088 12.8596 10.3488 13.0196 10.4388L13.9496 10.9288L13.7796 9.79877C13.7296 9.44877 13.8396 9.08875 14.0796 8.83875L14.8796 7.99878L13.7896 7.81879C13.4396 7.75879 13.1296 7.52879 12.9696 7.19879L12.4996 6.22876L12.0296 7.19879Z" fill="#161616"/>
</svg>
